<?xml version="1.0" encoding="UTF-8" standalone="no"?>
<svg
   id="Layer_1"
   data-name="Layer 1"
   viewBox="0 0 128 128"
   version="1.1"
   width="128"
   height="128"
   xmlns="http://www.w3.org/2000/svg"
   xmlns:svg="http://www.w3.org/2000/svg"
   xmlns:rdf="http://www.w3.org/1999/02/22-rdf-syntax-ns#"
   xmlns:cc="http://creativecommons.org/ns#"
   xmlns:dc="http://purl.org/dc/elements/1.1/">
  <defs
     id="defs15">
    <style
       id="style13">.cls-1{fill-rule:evenodd;}</style>
  </defs>
  <title
     id="title17">translation</title>
  <metadata
     id="metadata184">
    <rdf:RDF>
      <cc:Work
         rdf:about="">
        <dc:title>translation</dc:title>
      </cc:Work>
    </rdf:RDF>
  </metadata>
  <rect
     style="fill:#ffffff"
     id="rect238"
     width="128"
     height="128"
     x="0"
     y="0" />
  <path
     class="cls-1"
     d="M 28.018428,100.48438 52.589711,93.433593 48.248784,101.05078 C 57.145636,108.23828 66.308677,110.16211 76.485283,106.01172 66.902483,120.43555 52.067571,122.0957 39.628359,116.23633 L 35.195291,124 28.028667,100.48438 Z M 27.547479,38.501953 H 37.713847 V 36.001953 A 0.33785513,0.32226563 0 0 1 38.051702,35.679688 H 42.699769 A 0.33785513,0.32226563 0 0 1 43.037625,36.001953 V 38.501953 H 53.275659 A 0.33785513,0.32226563 0 0 1 53.613514,38.824218 V 43.462891 A 0.3276171,0.3125 0 0 1 53.275659,43.77539 H 51.371385 A 22.011773,20.996093 0 0 1 50.439723,47.681641 25.595086,24.414063 0 0 1 48.668544,51.587891 32.76171,31.25 0 0 1 46.539033,54.78125 C 45.801894,55.757812 44.993089,56.734375 44.133094,57.710938 A 41.289992,39.384766 0 0 0 48.873304,62.212891 V 62.212891 A 56.71871,54.101562 0 0 0 54.831841,66.392578 0.3276171,0.3125 0 0 1 54.93422,66.832031 L 52.528282,70.425782 A 0.3583312,0.34179687 0 0 1 52.057333,70.523437 61.970822,59.111328 0 0 1 45.6688,66.050781 45.641157,43.535156 0 0 1 40.549783,61.265625 C 39.229076,62.466797 37.836704,63.638672 36.382903,64.761719 34.734579,66.021484 33.014589,67.242187 31.263886,68.404297 A 0.33785513,0.32226563 0 0 1 30.792935,68.326172 L 28.264142,64.820312 A 0.31737907,0.30273438 0 0 1 28.346045,64.380859 C 30.076274,63.238281 31.765549,62.037109 33.37292,60.78711 34.796007,59.683593 36.157666,58.541015 37.416944,57.359375 A 40.655234,38.779297 0 0 1 34.191963,51.88086 45.78449,43.671875 0 0 1 31.704121,45.40625 0.34809317,0.33203125 0 0 1 31.939595,45.015625 L 36.249808,43.863281 A 0.3276171,0.3125 0 0 1 36.659329,44.087891 40.133094,38.28125 0 0 0 38.625032,49.341797 38.218583,36.455078 0 0 0 41.000256,53.628906 C 41.563348,52.955078 42.095726,52.291016 42.587151,51.617188 43.078577,50.94336 43.672382,50.015625 44.133094,49.195312 A 20.148452,19.21875 0 0 0 45.453801,46.353515 19.31917,18.427734 0 0 0 46.160225,43.726562 H 27.547479 A 0.3276171,0.3125 0 0 1 27.209624,43.414063 V 38.824218 A 0.33785513,0.32226563 0 0 1 27.547479,38.501953 Z M 78.225749,42.662109 H 111.37651 A 12.674687,12.089843 0 0 1 124,54.712891 V 80.171875 A 12.674687,12.089843 0 0 1 111.37651,92.222657 H 110.3527 L 109.67699,101.88086 A 2.682365,2.5585938 0 0 1 105.38725,103.83398 L 89.231636,92.232422 H 68.683901 A 12.674687,12.089843 0 0 1 56.070643,80.689453 H 43.590479 L 24.8344,94.820312 A 4.6787817,4.4628907 0 0 1 17.309445,90.914062 L 18.128487,80.611328 A 15.275147,14.570313 0 0 1 8.5252112,76.363281 L 8.2385462,76.070312 A 15.295623,14.589844 0 0 1 4,66.070312 V 38.873047 A 15.357052,14.648438 0 0 1 19.357052,24.22461 H 62.858459 A 15.264909,14.560547 0 0 1 73.680062,28.511718 L 73.966727,28.794922 A 15.357052,14.648438 0 0 1 78.184797,38.833984 V 42.623047 Z M 110.67008,28.287109 85.19785,31.568359 90.736626,24.732422 C 83.140005,16.304688 74.355771,13.013672 63.677502,15.601563 75.51267,2.7695313 90.439724,3.3457031 101.7937,11.001953 L 107.40415,4 110.58817,28.287109 Z M 97.759919,72.447266 H 89.56949 L 88.054262,77.330078 H 80.672639 C 83.129767,71.109375 85.97594,63.658203 88.443307,57.408203 89.334016,55.16211 90.347582,51.431641 93.562324,51.431641 96.777067,51.431641 98.026103,54.849609 98.957772,57.212891 L 106.8513,77.4375 H 99.316103 L 97.759919,72.417969 Z M 96.521116,67.662109 93.664704,59.087891 90.798055,67.662109 Z M 19.357052,28.726562 H 62.858459 A 10.678269,10.185547 0 0 1 73.495777,38.873047 V 66.070312 A 10.668032,10.175782 0 0 1 62.858459,76.265625 H 41.972869 L 21.947274,91.275391 23.134886,76.265625 H 19.357052 A 10.657793,10.166016 0 0 1 8.6890197,66.070312 V 38.873047 A 10.668032,10.175782 0 0 1 19.357052,28.726562 Z"
     id="path19"
     style="stroke-width:0.999909" />
</svg>
